<svg width="24" height="24" viewBox="0 0 24 24" fill="none" xmlns="http://www.w3.org/2000/svg">
<path d="M22 17.75C22 18.1642 21.6642 18.5 21.25 18.5L5.75 18.5C5.3358 18.5 5 18.1642 5 17.75C5 17.3358 5.3358 17 5.75 17L21.25 17C21.6642 17 22 17.3358 22 17.75ZM22 5.74997C22 6.16417 21.6642 6.49997 21.25 6.49997L8.75 6.49997C8.3358 6.49997 8 6.16417 8 5.74997C8 5.33577 8.3358 4.99997 8.75 4.99997L21.25 4.99997C21.6642 4.99997 22 5.33577 22 5.74997ZM21.25 12.5C21.6642 12.5 22 12.1642 22 11.75C22 11.3358 21.6642 11 21.25 11L2.75 11C2.3358 11 2 11.3358 2 11.75C2 12.1642 2.3358 12.5 2.75 12.5L21.25 12.5Z" fill="#2F2B3D" fill-opacity="0.68"/>
</svg>
