<svg width="130" height="41" viewBox="0 0 130 41" fill="none" xmlns="http://www.w3.org/2000/svg">
<path d="M20.9999 17.5046C23.209 17.5046 24.9999 19.2955 24.9999 21.5046C24.9999 23.7138 23.209 25.5046 20.9999 25.5046C18.7907 25.5046 16.9999 23.7138 16.9999 21.5046C16.9999 19.2955 18.7907 17.5046 20.9999 17.5046ZM20.9999 19.0046C19.6192 19.0046 18.4999 20.1239 18.4999 21.5046C18.4999 22.8853 19.6192 24.0046 20.9999 24.0046C22.3806 24.0046 23.4999 22.8853 23.4999 21.5046C23.4999 20.1239 22.3806 19.0046 20.9999 19.0046ZM20.9999 14C25.6134 14 29.596 17.15 30.701 21.5644C30.8016 21.9662 30.5574 22.3735 30.1556 22.4741C29.7537 22.5746 29.3465 22.3305 29.2459 21.9286C28.307 18.178 24.9212 15.5 20.9999 15.5C17.0768 15.5 13.69 18.1803 12.7527 21.9332C12.6524 22.335 12.2452 22.5794 11.8434 22.4791C11.4415 22.3787 11.1971 21.9716 11.2974 21.5697C12.4005 17.1527 16.3844 14 20.9999 14Z" fill="#5D87FF"/>
</svg>
