<svg width="111" height="34" viewBox="0 0 111 34" fill="none" xmlns="http://www.w3.org/2000/svg">
<path d="M35.1873 14.4816C35.895 14.4816 36.4781 14.7334 37.0778 15.2981L37.1384 15.3551L38.38 14.0288L38.3325 13.9726C37.6135 13.1175 36.5147 12.6465 35.238 12.6465C32.6769 12.6465 30.8881 14.4369 30.8881 17.0002C30.8881 19.5636 32.6769 21.3539 35.238 21.3539C36.4977 21.3539 37.5963 20.8833 38.3318 20.0284L38.3795 19.9734L37.1824 18.6361L37.1206 18.6938C36.5516 19.2259 35.8649 19.5188 35.1873 19.5188C33.8468 19.5188 32.874 18.4597 32.874 17.0002C32.874 15.5408 33.8468 14.4816 35.1873 14.4816Z" fill="black"/>
<path d="M43.8575 19.519C42.4336 19.519 41.4001 18.4598 41.4001 17.0001C41.4001 15.5408 42.4336 14.4817 43.8575 14.4817C45.2862 14.4817 46.3232 15.5408 46.3232 17.0001C46.3232 18.4598 45.2862 19.519 43.8575 19.519ZM43.8575 12.6467C41.3244 12.6467 39.4143 14.5183 39.4143 17.0001C39.4143 19.4824 41.3244 21.354 43.8575 21.354C46.3954 21.354 48.3091 19.4824 48.3091 17.0001C48.3091 14.5183 46.3954 12.6467 43.8575 12.6467Z" fill="black"/>
<path d="M54.5175 14.4816C55.9095 14.4816 56.8817 15.5173 56.8817 17.0002C56.8817 18.4832 55.9095 19.5188 54.5175 19.5188C53.1255 19.5188 52.1535 18.4832 52.1535 17.0002C52.1535 15.5173 53.1255 14.4816 54.5175 14.4816ZM54.7293 12.6466C53.714 12.6466 52.8885 12.9941 52.2718 13.6802V12.8585H50.3368V24.5315H52.2718V20.3205C52.8885 21.0063 53.714 21.3539 54.7293 21.3539C57.0885 21.3539 58.8673 19.4823 58.8673 17.0002C58.8673 14.5182 57.0885 12.6466 54.7293 12.6466Z" fill="black"/>
<path d="M64.067 17.43L61.5095 12.8584H59.3302L62.9743 19.3892L60.023 24.5822H62.1783L68.671 12.8584H66.5335L64.067 17.43Z" fill="black"/>
<path d="M73.7631 10.3973C74.2251 10.3973 74.7762 10.5548 75.2376 10.8186L75.3188 10.8652L76.0094 9.22076L75.9473 9.18392C75.2309 8.75983 74.4989 8.56219 73.6445 8.56219C71.891 8.56219 70.8441 9.68605 70.8441 11.5686V12.8586H69.2185V14.6342H70.8441V21.1421H72.7874V14.6342H75.5646V12.8586H72.7874V11.5686C72.7874 11.0341 72.9567 10.3973 73.7631 10.3973Z" fill="black"/>
<path d="M83.3153 12.8584L80.8482 17.43L78.2907 12.8584H76.1115L79.7561 19.3892L76.8042 24.5822H78.9595L85.4522 12.8584H83.3153Z" fill="black"/>
<path d="M96.8183 12.6466C95.8751 12.6466 94.6092 12.8892 93.8539 14.0255C93.2548 13.1472 92.2415 12.6466 91.0524 12.6466C90.3251 12.6466 89.3413 12.8328 88.6461 13.6835V12.8585H86.7195V21.1419H88.6629V16.5595C88.6629 15.1356 89.6759 14.4983 90.6801 14.4983C91.8274 14.4983 92.4854 15.2435 92.4854 16.5426V21.1419H94.4287V16.5595C94.4287 15.1356 95.4419 14.4983 96.4458 14.4983C97.5931 14.4983 98.2511 15.2435 98.2511 16.5426V21.1419H100.195V15.9578C100.195 14.0081 98.8063 12.6466 96.8183 12.6466Z" fill="#0D62C5"/>
<path d="M106.225 14.3883C107.264 14.3883 107.974 15.0551 108.185 16.2224H104.173C104.391 15.0387 105.116 14.3883 106.225 14.3883ZM106.259 12.6467C103.833 12.6467 102.138 14.4368 102.138 17.0001C102.138 19.6044 103.839 21.3538 106.369 21.3538C107.754 21.3538 108.831 20.9839 109.759 20.19L109.816 20.1412L108.842 18.7446L108.773 18.7994C108.116 19.3242 107.258 19.6374 106.48 19.6374C105.237 19.6374 104.398 18.9459 104.165 17.7354H110.137L110.143 17.6596C110.161 17.446 110.178 17.2172 110.178 16.9917C110.169 14.4335 108.558 12.6467 106.259 12.6467Z" fill="#0D62C5"/>
<path d="M8.43726 1.20275L1.805 6.81044C-0.601744 8.84551 -0.601744 12.5584 1.80547 14.5932L4.65258 17.0003L8.43728 13.8001C10.3339 12.1964 13.11 12.1964 15.0067 13.8001L18.7914 17.0003L21.6385 14.5932C24.0457 12.5584 24.0457 8.84551 21.639 6.81044L15.0067 1.20275C13.11 -0.400916 10.3339 -0.400916 8.43726 1.20275Z" fill="#168FDE"/>
<path d="M8.43764 20.2001L4.65271 17.0002L1.80525 19.408C-0.601724 21.4429 -0.60149 25.1557 1.80537 27.1906L8.43763 32.7975C10.3343 34.4008 13.1099 34.4008 15.0063 32.7975L21.6386 27.1904C24.0458 25.1557 24.0458 21.4429 21.639 19.408L18.7915 17.0002L15.0063 20.2001C13.1099 21.8036 10.3343 21.8036 8.43764 20.2001Z" fill="#0950AC"/>
</svg>
