<svg width="169" height="52" viewBox="0 0 169 52" fill="none" xmlns="http://www.w3.org/2000/svg">
<path d="M53.816 22.3393C54.8983 22.3393 55.7901 22.722 56.7073 23.5801L56.7999 23.6666L58.6988 21.6512L58.6263 21.5658C57.5266 20.2663 55.846 19.5506 53.8935 19.5506C49.9765 19.5506 47.2406 22.2713 47.2406 26.1665C47.2406 30.062 49.9765 32.7826 53.8935 32.7826C55.82 32.7826 57.5003 32.0675 58.6252 30.7683L58.6981 30.6847L56.8672 28.6525L56.7726 28.7402C55.9025 29.5488 54.8523 29.994 53.8159 29.994C51.7657 29.994 50.2779 28.3844 50.2779 26.1665C50.2779 23.9488 51.7657 22.3393 53.816 22.3393Z" fill="black"/>
<path d="M67.0762 29.9942C64.8986 29.9942 63.3179 28.3847 63.3179 26.1664C63.3179 23.9489 64.8986 22.3394 67.0762 22.3394C69.2613 22.3394 70.8473 23.9489 70.8473 26.1664C70.8473 28.3847 69.2613 29.9942 67.0762 29.9942ZM67.0762 19.5509C63.2021 19.5509 60.2808 22.395 60.2808 26.1665C60.2808 29.9387 63.2021 32.7827 67.0762 32.7827C70.9578 32.7827 73.8845 29.9387 73.8845 26.1665C73.8845 22.395 70.9578 19.5509 67.0762 19.5509Z" fill="black"/>
<path d="M83.3798 22.3393C85.5087 22.3393 86.9955 23.9131 86.9955 26.1665C86.9955 28.4202 85.5087 29.994 83.3798 29.994C81.2508 29.994 79.7642 28.4202 79.7642 26.1665C79.7642 23.9131 81.2508 22.3393 83.3798 22.3393ZM83.7036 19.5506C82.1509 19.5506 80.8884 20.0788 79.9451 21.1214V19.8727H76.9857V37.6113H79.9451V31.2122C80.8883 32.2544 82.1509 32.7826 83.7036 32.7826C87.3118 32.7826 90.0323 29.9385 90.0323 26.1665C90.0323 22.3949 87.3118 19.5506 83.7036 19.5506Z" fill="black"/>
<path d="M97.9848 26.8197L94.0734 19.8726H90.7404L96.3136 29.797L91.7999 37.6885H95.0963L105.026 19.8726H101.757L97.9848 26.8197Z" fill="black"/>
<path d="M112.814 16.1325C113.521 16.1325 114.364 16.3719 115.069 16.7729L115.193 16.8436L116.25 14.3447L116.155 14.2887C115.059 13.6442 113.94 13.3439 112.633 13.3439C109.951 13.3439 108.35 15.0518 108.35 17.9125V19.8728H105.864V22.5712H108.35V32.4607H111.322V22.5712H115.569V19.8728H111.322V17.9125C111.322 17.1003 111.581 16.1325 112.814 16.1325Z" fill="black"/>
<path d="M127.423 19.8726L123.65 26.8197L119.739 19.8726H116.406L121.98 29.797L117.465 37.6885H120.762L130.692 19.8726H127.423Z" fill="black"/>
<path d="M148.075 19.5508C146.633 19.5508 144.696 19.9195 143.541 21.6462C142.625 20.3115 141.075 19.5508 139.257 19.5508C138.144 19.5508 136.64 19.8337 135.576 21.1264V19.8728H132.63V32.4605H135.602V25.4969C135.602 23.3332 137.152 22.3647 138.687 22.3647C140.442 22.3647 141.448 23.4971 141.448 25.4712V32.4605H144.42V25.4969C144.42 23.3332 145.97 22.3647 147.505 22.3647C149.26 22.3647 150.267 23.4971 150.267 25.4712V32.4605H153.239V24.5826C153.239 21.6198 151.116 19.5508 148.075 19.5508Z" fill="#0D62C5"/>
<path d="M162.463 22.1975C164.051 22.1975 165.137 23.2108 165.46 24.9847H159.323C159.656 23.1859 160.766 22.1975 162.463 22.1975ZM162.514 19.5509C158.803 19.5509 156.211 22.2712 156.211 26.1665C156.211 30.124 158.812 32.7825 162.683 32.7825C164.8 32.7825 166.448 32.2204 167.867 31.0139L167.954 30.9398L166.464 28.8175L166.359 28.9007C165.354 29.6982 164.042 30.1742 162.851 30.1742C160.951 30.1742 159.668 29.1234 159.312 27.2839H168.445L168.455 27.1687C168.482 26.8441 168.507 26.4964 168.507 26.1537C168.494 22.2662 166.03 19.5509 162.514 19.5509Z" fill="#0D62C5"/>
<path d="M12.9041 2.16026L2.76059 10.6819C-0.920315 13.7744 -0.920315 19.4166 2.76131 22.5088L7.11571 26.1667L12.9041 21.3035C15.8048 18.8666 20.0506 18.8666 22.9514 21.3035L28.7398 26.1667L33.0942 22.5088C36.7758 19.4166 36.7758 13.7744 33.0949 10.6819L22.9514 2.16026C20.0507 -0.276726 15.8048 -0.276726 12.9041 2.16026Z" fill="#168FDE"/>
<path d="M12.9047 31.0292L7.11597 26.1666L2.76103 29.8255C-0.920227 32.9179 -0.919869 38.5599 2.76121 41.6523L12.9047 50.1727C15.8055 52.6091 20.0505 52.6091 22.9509 50.1727L33.0944 41.652C36.776 38.56 36.776 32.9179 33.0951 29.8255L28.74 26.1666L22.9509 31.0292C20.0505 33.466 15.8054 33.466 12.9047 31.0292Z" fill="#0950AC"/>
</svg>
