<svg width="477" height="594" viewBox="0 0 477 594" fill="none" xmlns="http://www.w3.org/2000/svg">
<path d="M136.327 25.2861L-14.0692 143.006C-68.6454 185.727 -68.6454 263.67 -14.0585 306.387L50.5037 356.918L136.327 289.736C179.336 256.071 242.288 256.071 285.297 289.736L371.121 356.918L435.683 306.387C490.27 263.67 490.27 185.727 435.694 143.006L285.298 25.2861C242.288 -8.37898 179.336 -8.37898 136.327 25.2861Z" fill="#168FDE" fill-opacity="0.1"/>
<path d="M136.333 424.092L50.504 356.918L-14.0662 407.464C-68.6477 450.183 -68.6424 528.123 -14.0635 570.842L136.332 688.545C179.342 722.203 242.283 722.203 285.286 688.545L435.682 570.838C490.269 528.124 490.269 450.183 435.693 407.464L371.12 356.918L285.286 424.092C242.282 457.755 179.342 457.755 136.333 424.092Z" fill="#0950AC" fill-opacity="0.1"/>
</svg>
