<svg width="24" height="25" viewBox="0 0 24 25" fill="none" xmlns="http://www.w3.org/2000/svg">
<path d="M11.9999 9.50462C14.209 9.50462 15.9999 11.2955 15.9999 13.5046C15.9999 15.7138 14.209 17.5046 11.9999 17.5046C9.79073 17.5046 7.99987 15.7138 7.99987 13.5046C7.99987 11.2955 9.79073 9.50462 11.9999 9.50462ZM11.9999 11.0046C10.6192 11.0046 9.49987 12.1239 9.49987 13.5046C9.49987 14.8853 10.6192 16.0046 11.9999 16.0046C13.3806 16.0046 14.4999 14.8853 14.4999 13.5046C14.4999 12.1239 13.3806 11.0046 11.9999 11.0046ZM11.9999 6C16.6134 6 20.596 9.15001 21.701 13.5644C21.8016 13.9662 21.5574 14.3735 21.1556 14.4741C20.7537 14.5746 20.3465 14.3305 20.2459 13.9286C19.307 10.178 15.9212 7.5 11.9999 7.5C8.07681 7.5 4.68997 10.1803 3.75273 13.9332C3.65237 14.335 3.24523 14.5794 2.84336 14.4791C2.44149 14.3787 2.19707 13.9716 2.29743 13.5697C3.40052 9.15272 7.38436 6 11.9999 6Z" fill="#5D87FF"/>
</svg>
