<svg width="20" height="20" viewBox="0 0 20 20" fill="none" xmlns="http://www.w3.org/2000/svg">
<path d="M16.4083 7.91722L13.9391 5.44809C13.695 5.20401 13.695 4.80829 13.9391 4.5642C14.161 4.34232 14.5083 4.32214 14.753 4.50369L14.823 4.5642L18.3585 8.09974C18.5805 8.32163 18.6006 8.66884 18.419 8.91351L18.3585 8.98359L14.823 12.5192C14.579 12.7633 14.1832 12.7633 13.9391 12.5192C13.7173 12.2973 13.6971 11.95 13.8786 11.7053L13.9391 11.6353L16.4083 9.16718L11.6666 9.16668C8.16838 9.16668 5.31975 6.38533 5.21148 2.91336L5.20829 2.70834C5.20829 2.36317 5.48812 2.08334 5.83329 2.08334C6.17847 2.08334 6.45829 2.36317 6.45829 2.70834C6.45829 5.5209 8.68763 7.81277 11.4757 7.91324L11.6666 7.91668L16.4083 7.91722ZM7.49996 11.2502C7.49996 12.4008 6.56722 13.3335 5.41663 13.3335C4.26603 13.3335 3.33329 12.4008 3.33329 11.2502C3.33329 10.0996 4.26603 9.16684 5.41663 9.16684C6.56722 9.16684 7.49996 10.0996 7.49996 11.2502ZM9.16663 15.7293C9.16663 17.0264 8.0952 18.3335 5.41663 18.3335C2.73805 18.3336 1.66663 17.0313 1.66663 15.7293V15.6435C1.66663 14.8277 2.32803 14.1668 3.1439 14.1668H7.68935C8.50521 14.1668 9.16663 14.8277 9.16663 15.6435V15.7293Z" fill="#5D87FF"/>
</svg>
